<?xml version="1.0" encoding="iso-8859-1"?>
<!-- Generator: Adobe Illustrator 19.0.0, SVG Export Plug-In . SVG Version: 6.00 Build 0)  -->
<svg version="1.1" id="Capa_1" xmlns="http://www.w3.org/2000/svg" xmlns:xlink="http://www.w3.org/1999/xlink" x="0px" y="0px"
	 viewBox="0 0 512 512" style="enable-background:new 0 0 512 512;" xml:space="preserve">
<g>
	<g>
		<path d="M503.467,247.491h-34.133v-34.133c-0.014-4.707-3.826-8.52-8.533-8.533h-34.133v-38.827c0,0-8.533-8.533-13.227-12.373
			h-37.973v-25.6h37.973c4.779,1.536,13.227-6.997,13.227-6.997V76.056c0,0-8.448-8.533-13.227-7.765h-44.971
			c-4.811-0.246-9.085,3.049-10.069,7.765v34.901h-34.133c-4.707,0.014-8.52,3.826-8.533,8.533v34.133H196.267v-34.133
			c-0.014-4.707-3.826-8.52-8.533-8.533H153.6V76.824c-0.014-4.707-3.826-8.52-8.533-8.533h-42.984
			c-2.165-0.023-4.251,0.818-5.793,2.338c-1.542,1.52-2.415,3.593-2.423,5.758v44.64c0,0-0.085,8.533,4.693,6.997h37.973v34.133
			H93.867c-4.707,0.014-8.52,3.826-8.533,8.533v34.133H51.2c-4.707,0.014-8.52,3.826-8.533,8.533v34.133H8.533
			c-4.707,0.014-8.52,3.826-8.533,8.533v136.533c0.014,4.707,3.826,8.52,8.533,8.533h43.395c2.18-0.108,4.228-1.078,5.692-2.697
			s2.224-3.753,2.113-5.933V264.558h25.6v128c0.014,4.707,3.826,8.52,8.533,8.533h42.667v34.133c0.014,4.707,3.826,8.52,8.533,8.533
			h93.867c4.713,0,8.533-3.82,8.533-8.533v-42.667c0-4.713-3.82-8.533-8.533-8.533H153.6v-25.6h204.8v25.6h-85.333
			c-4.713,0-8.533,3.82-8.533,8.533v42.667c0,4.713,3.821,8.533,8.533,8.533h93.867c4.707-0.014,8.52-3.826,8.533-8.533v-34.133
			h42.667c4.707-0.014,8.52-3.826,8.533-8.533v-128h25.6v127.914c-0.06,2.234,0.774,4.4,2.316,6.018
			c1.542,1.618,3.666,2.554,5.9,2.601h42.984c4.707-0.014,8.52-3.826,8.533-8.533V256.024
			C511.986,251.317,508.174,247.505,503.467,247.491z M196.267,256.024c-0.014,4.707-3.826,8.52-8.533,8.533h-42.667
			c-4.707-0.014-8.52-3.826-8.533-8.533v-42.667c0.014-4.707,3.826-8.52,8.533-8.533h42.667c4.707,0.014,8.52,3.826,8.533,8.533
			V256.024z M375.467,256.024c-0.014,4.707-3.826,8.52-8.533,8.533h-42.667c-4.707-0.014-8.52-3.826-8.533-8.533v-42.667
			c0.014-4.707,3.826-8.52,8.533-8.533h42.667c4.707,0.014,8.52,3.826,8.533,8.533V256.024z"/>
	</g>
</g>
<g>
</g>
<g>
</g>
<g>
</g>
<g>
</g>
<g>
</g>
<g>
</g>
<g>
</g>
<g>
</g>
<g>
</g>
<g>
</g>
<g>
</g>
<g>
</g>
<g>
</g>
<g>
</g>
<g>
</g>
</svg>
